# xmcd
#
# Track frame offsets:
#	150
#	17629
#	40982
#	61999
#	76017
#	96145
#	115100
#	133644
#	155251
#	177212
#
# Disc length: 2622 seconds
#
# Revision: 1
# Processed by: cddbd v1.5.2PL0 Copyright (c) Steve Scherf et al.
# Submitted via: audiograbber 1.83.01
#
DISCID=700a3c0a
DTITLE=Foundry - Give Me A Reason To Live
DYEAR=2003
DGENRE=Country Rock
TTITLE0=Give Me A Reason To Live
TTITLE1=September Spiders
TTITLE2=Reston
TTITLE3=Back Home
TTITLE4=Motel Blues
TTITLE5=Before It's Time
TTITLE6=Once Again San Francisco
TTITLE7=No Decision
TTITLE8=Something You Hold On To
TTITLE9=Rain Cloud
EXTD=
EXTT0=
EXTT1=
EXTT2=
EXTT3=
EXTT4=
EXTT5=
EXTT6=
EXTT7=
EXTT8=
EXTT9=
PLAYORDER=
